<?xml version="1.0" encoding="utf-8"?>
<!-- Generator: Adobe Illustrator 23.0.3, SVG Export Plug-In . SVG Version: 6.00 Build 0)  -->
<svg version="1.1" id="Layer_1" xmlns="http://www.w3.org/2000/svg" xmlns:xlink="http://www.w3.org/1999/xlink" x="0px" y="0px"
	 viewBox="0 0 512 398" style="enable-background:new 0 0 512 398;" xml:space="preserve">
<style type="text/css">
	.st0{fill:#846F75;}
	.st1{fill:#65C1D6;}
</style>
<g>
	<g>
		<g>
			<path class="st0" d="M260.5,356.8H6.9c-3.8,0-6.9-3.1-6.9-6.9s3.1-6.9,6.9-6.9h253.7c3.8,0,6.9,3.1,6.9,6.9
				C267.4,353.8,264.3,356.8,260.5,356.8z"/>
		</g>
		<g>
			<path class="st1" d="M271.5,290.5h-21.9c-7.5,0-14.1-5.1-16-12.4l-5.3-20.6L210,268.3c-6.5,3.8-14.7,2.8-20.1-2.5l-15.5-15.5
				c-5.3-5.3-6.4-13.6-2.6-20.1l10.8-18.3l-20.6-5.3c-7.3-1.9-12.4-8.5-12.4-16v-21.9c0-7.5,5.1-14.1,12.4-16l20.6-5.3l-10.8-18.3
				c-3.8-6.5-2.8-14.7,2.5-20.1l15.5-15.5c5.3-5.3,13.6-6.4,20.1-2.6l18.3,10.8l5.3-20.6c1.9-7.3,8.5-12.4,16-12.4h21.9
				c7.5,0,14.1,5.1,16,12.4l5.3,20.6L311.1,91c6.5-3.8,14.7-2.8,20.1,2.6l15.5,15.5c5.3,5.3,6.4,13.6,2.6,20.1l-10.8,18.3l20.6,5.3
				l0,0c7.3,1.9,12.4,8.5,12.4,16v21.9c0,7.5-5.1,14.1-12.4,16l-20.6,5.3l10.8,18.3c3.8,6.5,2.8,14.7-2.6,20.1l-15.5,15.5
				c-5.3,5.3-13.6,6.4-20.1,2.6l-18.3-10.8l-5.3,20.6C285.6,285.4,279,290.5,271.5,290.5L271.5,290.5z M232.7,240
				c0.9,0,1.8,0.2,2.6,0.5c2,0.8,3.5,2.5,4,4.6l7.6,29.4c0.3,1.2,1.4,2.1,2.7,2.1h21.9c1.3,0,2.4-0.9,2.7-2.1l7.6-29.4
				c0.5-2.1,2-3.8,4-4.6s4.3-0.7,6.1,0.4l26.2,15.5c1.1,0.6,2.5,0.5,3.4-0.4l15.5-15.5c0.9-0.9,1.1-2.3,0.4-3.4L321.9,211
				c-1.1-1.9-1.3-4.1-0.4-6.1c0.8-2,2.5-3.5,4.6-4l29.4-7.6c1.2-0.3,2.1-1.4,2.1-2.7v-21.9c0-1.3-0.9-2.4-2.1-2.7l-29.4-7.6
				c-2.1-0.5-3.8-2-4.6-4c-0.8-2-0.7-4.3,0.4-6.1l15.5-26.2c0.6-1.1,0.5-2.5-0.4-3.4l-15.5-15.5c-0.9-0.9-2.3-1.1-3.4-0.4
				l-26.2,15.5c-1.9,1.1-4.1,1.3-6.1,0.4c-2-0.8-3.5-2.5-4-4.6l-7.6-29.4c-0.3-1.2-1.4-2.1-2.7-2.1h-21.9c-1.3,0-2.4,0.9-2.7,2.1
				l-7.6,29.4c-0.5,2.1-2,3.8-4,4.6c-2,0.8-4.3,0.7-6.1-0.4L203,102.8c-1.1-0.6-2.5-0.5-3.4,0.4l-15.5,15.5
				c-0.9,0.9-1.1,2.3-0.4,3.4l15.5,26.2c1.1,1.9,1.3,4.1,0.4,6.1c-0.8,2-2.5,3.5-4.6,4l-29.4,7.6c-1.2,0.3-2.1,1.4-2.1,2.7v21.9
				c0,1.3,0.9,2.4,2.1,2.7l29.4,7.6c2.1,0.5,3.8,2,4.6,4s0.7,4.3-0.4,6.1l-15.5,26.2c-0.6,1.1-0.5,2.5,0.4,3.4l15.5,15.5
				c0.9,0.9,2.3,1.1,3.4,0.4l26.2-15.5C230.2,240.4,231.4,240,232.7,240L232.7,240z M260.5,221.9c-23.3,0-42.3-19-42.3-42.3
				s19-42.3,42.3-42.3s42.3,19,42.3,42.3S283.8,221.9,260.5,221.9z M260.5,151.1c-15.7,0-28.5,12.8-28.5,28.5s12.8,28.5,28.5,28.5
				s28.5-12.8,28.5-28.5S276.3,151.1,260.5,151.1L260.5,151.1z"/>
		</g>
		<path class="st0" d="M260.5,2.4c-46.2,0-90,17.7-123.2,49.8C106.5,82,87.8,121.3,84,163.7l-25.6-25.6c-2.7-2.7-7-2.7-9.7,0
			s-2.7,7,0,9.7l36.6,36.6c1.3,1.3,3.1,2,4.9,2s3.5-0.7,4.9-2l36.6-36.6c2.7-2.7,2.7-7,0-9.7s-7-2.7-9.7,0l-24,24
			c8.8-82.7,78-145.9,162.5-145.9c90.1,0,163.5,73.3,163.5,163.5s-73.3,163.5-163.5,163.5c-3.8,0-6.9,3.1-6.9,6.9s3.1,6.9,6.9,6.9
			c97.7,0,177.2-79.5,177.2-177.2S358.2,2.4,260.5,2.4z"/>
		<path class="st1" d="M508.7,345.1l-36.6-36.6c-2.7-2.7-7-2.7-9.7,0s-2.7,7,0,9.7l24.9,24.9H375c-3.8,0-6.9,3.1-6.9,6.9
			s3.1,6.9,6.9,6.9h112.3l-24.9,24.9c-2.7,2.7-2.7,7,0,9.7c1.3,1.3,3.1,2,4.9,2s3.5-0.7,4.9-2l36.6-36.6c1.3-1.3,2-3,2-4.9
			S510,346.4,508.7,345.1z"/>
	</g>
</g>
</svg>
