<?xml version="1.0" encoding="utf-8"?>
<!-- Generator: Adobe Illustrator 23.0.3, SVG Export Plug-In . SVG Version: 6.00 Build 0)  -->
<svg version="1.1" id="Capa_1" xmlns="http://www.w3.org/2000/svg" xmlns:xlink="http://www.w3.org/1999/xlink" x="0px" y="0px"
	 viewBox="0 0 349 349" style="enable-background:new 0 0 349 349;" xml:space="preserve">
<style type="text/css">
	.st0{fill:#FFFFFF;}
</style>
<g>
	<path class="st0" d="M321.5,274.4l-47.1,47.1c-3.5,3.5-9.3,3.5-12.9,0l-87-87l-87,87c-3.5,3.5-9.3,3.5-12.9,0l-47.1-47.1
		c-3.5-3.5-3.5-9.3,0-12.9l87-87l-87-87c-3.5-3.5-3.5-9.3,0-12.9l47.1-47.1c3.5-3.5,9.3-3.5,12.9,0l87,87l87-87
		c3.5-3.5,9.3-3.5,12.9,0l47.1,47.1c3.5,3.5,3.5,9.3,0,12.9l-87,87l87,87C325.1,265.1,325,270.8,321.5,274.4z"/>
</g>
</svg>
