<svg id="Capa_1" enable-background="new 0 0 512 512" height="512" viewBox="0 0 512 512" width="512" xmlns="http://www.w3.org/2000/svg"><path d="m342.458 158.952-9.29-37.258c-4.202-16.854-15.864-30.217-30.948-36.939 5.546-8.585 8.78-18.796 8.78-29.755 0-30.327-24.673-55-55-55s-55 24.673-55 55c0 10.959 3.234 21.17 8.78 29.755-15.085 6.722-26.746 20.085-30.948 36.939l-9.29 37.258c-1.875 7.519-.213 15.333 4.558 21.44 4.771 6.106 11.951 9.608 19.7 9.608h124.401c7.749 0 14.929-3.502 19.7-9.608 4.77-6.107 6.432-13.921 4.557-21.44zm-86.458-128.952c13.785 0 25 11.215 25 25s-11.215 25-25 25-25-11.215-25-25 11.215-25 25-25zm-55.801 130 7.741-31.048c2.783-11.159 12.758-18.952 24.258-18.952h47.604c11.5 0 21.476 7.793 24.258 18.952l7.741 31.048z"/><path d="m164.38 443.694c-4.202-16.854-15.864-30.217-30.948-36.939 5.546-8.585 8.78-18.796 8.78-29.755 0-30.327-24.673-55-55-55s-55 24.673-55 55c0 10.959 3.234 21.17 8.78 29.755-15.085 6.722-26.746 20.085-30.948 36.939l-9.291 37.258c-1.875 7.519-.213 15.333 4.558 21.44 4.771 6.106 11.951 9.608 19.7 9.608h124.401c7.749 0 14.93-3.502 19.7-9.608 4.771-6.106 6.432-13.921 4.557-21.44zm-77.168-91.694c13.785 0 25 11.215 25 25s-11.215 25-25 25-25-11.215-25-25 11.215-25 25-25zm-55.801 130 7.742-31.048c2.782-11.159 12.757-18.952 24.257-18.952h47.604c11.5 0 21.475 7.793 24.258 18.952l7.741 31.048z"/><path d="m511.246 480.952-9.29-37.258c-4.202-16.854-15.864-30.217-30.948-36.939 5.546-8.585 8.78-18.796 8.78-29.755 0-30.327-24.673-55-55-55s-55 24.673-55 55c0 10.959 3.234 21.17 8.78 29.755-15.085 6.722-26.746 20.085-30.948 36.939l-9.29 37.258c-1.875 7.519-.213 15.333 4.558 21.44 4.771 6.106 11.951 9.608 19.7 9.608h124.401c7.749 0 14.93-3.502 19.7-9.608 4.771-6.107 6.432-13.921 4.557-21.44zm-86.458-128.952c13.785 0 25 11.215 25 25s-11.215 25-25 25-25-11.215-25-25 11.215-25 25-25zm-55.801 130 7.741-31.048c2.783-11.159 12.758-18.952 24.258-18.952h47.604c11.5 0 21.475 7.793 24.257 18.952l7.742 31.048z"/><path d="m323.653 328.323-52.671-30.409v-60.227c0-8.284-6.716-15-15-15s-15 6.716-15 15v60.424l-52.329 30.212c-7.174 4.142-9.632 13.316-5.49 20.49 2.778 4.813 7.82 7.502 13.004 7.502 2.544 0 5.124-.648 7.486-2.012l52.5-30.311 52.5 30.311c2.362 1.364 4.941 2.012 7.486 2.012 5.184 0 10.227-2.69 13.004-7.502 4.143-7.174 1.685-16.348-5.49-20.49z"/></svg>